<svg xmlns="http://www.w3.org/2000/svg" viewBox="-187 -215 374 450" width="374" height="450"><title>Symput Logo</title><g vector-effect="non-scaling-stroke"><g transform="matrix(0 0.86 -0.86 0 0 0)"><path style="stroke:rgb(0, 0, 0);stroke-width:0;stroke-dasharray:none;stroke-linecap:butt;stroke-dashoffset:0;stroke-linejoin:miter;stroke-miterlimit:4;fill:rgb(251, 191, 36);file-rule:nonzero;opacity:1" vector-effect="non-scaling-stroke" transform=" translate(-250, -246.67)" d="M 125 463.175 L 0 246.667 L 125 30.16 L 374.999 30.16 L 500 246.667 L 374.999 463.175 z" stroke-linecap="round"></path></g><g transform="matrix(1.05 0 0 1.15 0 0)"><g vector-effect="non-scaling-stroke"><g transform="matrix(2.55 0 0 2.55 0.04 98.09)"><path style="stroke:rgb(0, 0, 0);stroke-width:0;stroke-dasharray:none;stroke-linecap:butt;stroke-dashoffset:0;stroke-linejoin:miter;stroke-miterlimit:4;fill:rgb(0, 0, 0);file-rule:nonzero;opacity:1" vector-effect="non-scaling-stroke" transform=" translate(-50, -85)" d="M 41.308 76.828 C 42.505 78.898 44.239 80.781 46.679 82.325 C 46.679 82.325 48.132 83.488 50.052 83.433 C 51.97 83.484 53.427 82.326 53.427 82.326 C 55.716 80.88 57.385 79.134 58.573 77.214 C 56.299 77.71 53.698 77.968 51.017 77.968 C 47.714 77.968 44.316 77.583 41.308 76.828 z" stroke-linecap="round"></path></g><g transform="matrix(2.7 0 0 2.7 0 72.51)"><path style="stroke:rgb(0, 0, 0);stroke-width:0;stroke-dasharray:none;stroke-linecap:butt;stroke-dashoffset:0;stroke-linejoin:miter;stroke-miterlimit:4;fill:rgb(255, 255, 255);file-rule:nonzero;opacity:1" vector-effect="non-scaling-stroke" transform=" translate(-50, -75)" d="M 39.051 68.36 C 39.106 70.096 39.358 71.83 39.869 73.501 C 45.809 75.564 54.969 75.707 60.113 73.908 C 60.676 72.216 60.963 70.455 61.043 68.687 C 58.048 69.625 54.492 70.051 50.929 70.051 C 46.659 70.052 42.394 69.434 39.051 68.36 z" stroke-linecap="round"></path></g><g transform="matrix(2.85 0 0 2.85 0 46.16)"><path style="stroke:rgb(0, 0, 0);stroke-width:0;stroke-dasharray:none;stroke-linecap:butt;stroke-dashoffset:0;stroke-linejoin:miter;stroke-miterlimit:4;fill:rgb(0, 0, 0);file-rule:nonzero;opacity:1" vector-effect="non-scaling-stroke" transform=" translate(-50, -65)" d="M 50.929 62.06 C 47.027 62.06 43.119 61.549 39.923 60.641 C 39.534 62.222 39.268 63.831 39.128 65.453 C 44.908 67.567 54.747 68.051 60.996 65.762 C 60.875 64.13 60.626 62.5094 60.251 60.916 C 57.427 61.692 54.187 62.06 50.929 62.06 z" stroke-linecap="round"></path></g><g transform="matrix(3 0 0 3 0 18.55)"><path style="stroke:rgb(0, 0, 0);stroke-width:0;stroke-dasharray:none;stroke-linecap:butt;stroke-dashoffset:0;stroke-linejoin:miter;stroke-miterlimit:4;fill:rgb(255, 255, 255);file-rule:nonzero;opacity:1" vector-effect="non-scaling-stroke" transform=" translate(-50, -55)" d="M 59.514 58.241 C 59.005 56.6161 58.383 55.02888 57.652 53.491 C 55.053 54.034 52.232 54.3 49.44 54.3 C 47.0624 54.3035 44.689 54.10983 42.343 53.721 C 41.7016 55.101 41.146 56.519 40.678 57.967 C 46.062 59.501 53.848 59.813 59.514 58.241 z" stroke-linecap="round"></path></g><g transform="matrix(3.1 0 0 2.75 0 -10)"><path style="stroke:rgb(0, 0, 0);stroke-width:0;stroke-dasharray:none;stroke-linecap:butt;stroke-dashoffset:0;stroke-linejoin:miter;stroke-miterlimit:4;fill:rgb(0, 0, 0);file-rule:nonzero;opacity:1" vector-effect="non-scaling-stroke" transform=" translate(-50, -45)" d="M 58.786 38.047 C 58.3893 37.14684 57.919 36.2809 57.38 35.458 C 57.27 35.335 57.127 35.226 56.986 35.116 C 57.4225 34.06225 57.6465 32.932599 57.645 31.792 C 57.645 28.418 55.749 25.521 53.045 24.269 L 55.161 16.9 L 61.304 16.672 C 61.519662 16.66332 61.6882 16.4827 61.682 16.267 C 61.6697 16.052618 61.491 15.886 61.276 15.889 L 54.88 16.127 C 54.7275 16.131 54.592 16.225 54.534 16.366 L 50.971 23.671 C 50.666 23.6296 50.359 23.6079 50.051 23.605 C 49.737 23.605 49.43 23.631 49.127 23.671 L 45.562 16.363 C 45.5013 16.224 45.3654 16.132 45.213 16.127 L 38.82 15.89 C 38.6054 15.88686 38.42584 16.0528 38.413 16.267 C 38.4095 16.371 38.447 16.472 38.5189 16.5484 C 38.59 16.6244 38.689 16.6689 38.793 16.672 L 44.936 16.902 L 47.054 24.27 C 44.351 25.522 42.456 28.417 42.457 31.79 C 42.457 32.974 42.696 34.097 43.116 35.113 C 42.968 35.223 42.828 35.336 42.723 35.457 C 42.723 35.457 41.984 36.565 41.343 38.12 C 29.184 41.662 -2.639 46.12 0.916 55.936 C 4.86 66.813 26.371 63.482 29.968 60.534 C 34.975 56.423 39.199 52.584 41.811 49.534 C 42.035 50.046 42.27 50.513 42.505 50.93 C 47.088 51.752 52.794 51.75 57.503 50.685 C 57.669 50.339 57.835 49.954 57.999 49.548 C 60.624 52.559 64.767 56.317 69.647 60.318 C 73.243 63.267 94.753 66.593 98.695 55.719 C 102.202 46.038 71.295 41.566 58.786 38.047 z" stroke-linecap="round"></path></g></g></g></g></svg>