<?xml version="1.0" standalone="no"?>
<!DOCTYPE svg PUBLIC "-//W3C//DTD SVG 20010904//EN"
 "http://www.w3.org/TR/2001/REC-SVG-20010904/DTD/svg10.dtd">
<svg version="1.0" xmlns="http://www.w3.org/2000/svg"
 width="700.000000pt" height="700.000000pt" viewBox="0 0 700.000000 700.000000"
 preserveAspectRatio="xMidYMid meet">
<metadata>
Created by potrace 1.11, written by Peter Selinger 2001-2013
</metadata>
<g transform="translate(0.000000,700.000000) scale(0.100000,-0.100000)"
fill="#000000" stroke="none">
<path d="M2891 5177 c-7 -7 -7 -15 0 -24 8 -9 45 -13 133 -14 66 0 141 -4 165
-7 l44 -7 53 -180 c30 -99 54 -182 54 -185 0 -3 -16 -14 -35 -24 -55 -30 -133
-119 -166 -191 -40 -84 -49 -191 -25 -284 14 -55 14 -66 2 -80 -8 -9 -28 -44
-45 -78 l-31 -61 -168 -41 c-92 -22 -279 -65 -417 -96 -613 -138 -943 -233
-1187 -340 -183 -80 -312 -177 -359 -267 -91 -174 97 -416 393 -507 189 -57
542 -67 788 -21 143 26 289 74 339 111 103 74 361 298 492 426 l145 143 16
-34 c19 -38 27 -41 183 -56 179 -17 397 -9 570 21 56 9 65 14 75 40 l13 29
141 -138 c200 -195 454 -406 541 -447 135 -65 339 -104 585 -112 351 -11 607
56 767 202 81 73 138 181 137 259 -4 245 -406 434 -1409 665 -170 39 -401 92
-513 118 l-203 46 -30 58 c-17 31 -40 67 -50 78 -15 16 -17 25 -10 39 5 10 15
47 21 83 27 157 -49 335 -180 420 -28 18 -50 37 -50 43 0 6 23 90 51 187 l52
176 60 7 c33 3 105 6 161 6 105 0 133 8 123 33 -4 12 -31 14 -169 10 -90 -2
-172 -6 -183 -8 -15 -3 -47 -56 -119 -195 l-98 -190 -46 0 -47 0 -87 174 c-48
95 -96 182 -105 194 -17 19 -32 21 -190 25 -110 2 -176 0 -182 -6z"/>
<path d="M3005 2859 c-7 -20 -35 -200 -35 -225 0 -26 39 -44 161 -73 137 -33
245 -44 419 -44 178 0 300 16 418 56 67 22 67 22 64 57 -5 74 -24 197 -31 209
-7 10 -28 8 -102 -8 -147 -31 -335 -43 -493 -31 -119 10 -332 46 -378 65 -11
4 -20 2 -23 -6z"/>
<path d="M3130 2043 c0 -18 76 -120 125 -168 28 -27 77 -68 109 -90 49 -33 66
-40 122 -43 84 -6 146 24 248 119 63 59 136 151 136 172 0 3 -13 2 -30 -3 -63
-18 -268 -33 -376 -26 -97 5 -242 25 -311 43 -13 3 -23 1 -23 -4z"/>
</g>
</svg>
